<svg xmlns="http://www.w3.org/2000/svg" xmlns:xlink="http://www.w3.org/1999/xlink" width="1024" zoomAndPan="magnify" viewBox="0 0 768 767.999994" height="1024" preserveAspectRatio="xMidYMid meet" version="1.0"><defs><clipPath id="853ec8c08d"><path d="M 230.398438 294.074219 L 537.898438 294.074219 L 537.898438 474 L 230.398438 474 Z M 230.398438 294.074219 " clip-rule="nonzero"/></clipPath></defs><g clip-path="url(#853ec8c08d)"><path fill="currentColor" d="M 533.511719 294.21875 L 234.789062 294.21875 C 232.367188 294.21875 230.398438 296.1875 230.398438 298.609375 L 230.398438 324.128906 C 230.398438 326.550781 232.367188 328.515625 234.789062 328.515625 L 240.863281 328.515625 L 240.863281 426.703125 C 240.863281 429.125 242.832031 431.09375 245.253906 431.09375 L 260.558594 431.09375 C 260.988281 435.640625 261.902344 440.222656 263.308594 444.835938 L 262.328125 465.535156 C 262.210938 467.949219 264.078125 470 266.492188 470.117188 L 266.507812 470.117188 C 299.148438 473.128906 351.617188 473.90625 398.296875 472.722656 C 442.84375 471.589844 482.351562 468.640625 494.851562 464.113281 C 496.617188 463.472656 497.71875 461.8125 497.742188 460.039062 C 498.039062 452.683594 497.410156 447.15625 497.410156 447.140625 C 497.363281 446.75 497.265625 446.371094 497.125 446.019531 C 495.574219 441.097656 493.210938 436.757812 490.03125 433.003906 C 489.46875 432.34375 488.882812 431.714844 488.277344 431.09375 L 523.03125 431.09375 C 525.453125 431.09375 527.421875 429.125 527.421875 426.703125 L 527.421875 328.515625 L 533.496094 328.515625 C 535.917969 328.515625 537.882812 326.550781 537.882812 324.128906 L 537.882812 298.609375 C 537.898438 296.1875 535.933594 294.21875 533.511719 294.21875 Z M 473.761719 431.136719 C 477.636719 433.191406 480.84375 435.695312 483.355469 438.664062 C 484.910156 440.492188 486.210938 442.507812 487.253906 444.695312 C 478.382812 446.347656 458.988281 447.355469 435.226562 447.785156 C 437.117188 443.230469 442.511719 442.699219 448.046875 442.160156 C 457.398438 441.246094 466.984375 440.308594 470.089844 429.429688 C 471.347656 429.953125 472.578125 430.515625 473.761719 431.136719 Z M 447.226562 433.445312 C 437.222656 434.421875 427.492188 435.367188 425.96875 447.925781 C 417.484375 448.023438 408.582031 448.0625 399.5 448.03125 L 416.183594 411.730469 C 422.003906 414.175781 427.730469 416.464844 433.296875 418.53125 C 440.34375 421.144531 446.925781 422.78125 453.113281 424.320312 C 456.042969 425.050781 458.886719 425.757812 461.617188 426.535156 C 459.542969 432.246094 453.308594 432.851562 447.226562 433.445312 Z M 389.890625 447.988281 C 387.054688 447.964844 384.203125 447.941406 381.359375 447.902344 L 401.023438 405.105469 C 403.398438 406.179688 405.773438 407.242188 408.144531 408.277344 Z M 371.789062 447.769531 C 368.9375 447.726562 366.101562 447.679688 363.277344 447.625 L 386.035156 398.109375 C 387.777344 398.949219 389.523438 399.777344 391.269531 400.601562 C 391.867188 400.882812 392.476562 401.160156 393.074219 401.445312 Z M 353.738281 447.441406 C 350.878906 447.378906 348.050781 447.316406 345.257812 447.25 L 371.179688 390.839844 C 373.503906 392 375.832031 393.152344 378.167969 394.296875 Z M 335.742188 446.988281 C 320.582031 446.558594 306.851562 446.019531 296.027344 445.394531 C 295.851562 436.496094 293.875 428.515625 290.101562 421.46875 C 286.34375 414.457031 280.84375 408.433594 273.605469 403.390625 C 275.71875 398.308594 278.5625 393.265625 282.152344 388.246094 C 286.058594 394.167969 291.167969 398.523438 296.921875 401.332031 C 302.125 403.875 307.875 405.128906 313.734375 405.128906 C 319.535156 405.128906 325.433594 403.882812 330.984375 401.421875 C 338.085938 398.277344 344.691406 393.152344 349.925781 386.109375 C 350.054688 385.957031 350.171875 385.796875 350.285156 385.621094 C 351.230469 384.320312 352.132812 382.960938 352.984375 381.539062 C 356.398438 383.3125 359.863281 385.097656 363.355469 386.871094 Z M 271.757812 442.535156 C 268.574219 432.277344 268.230469 422.136719 270.714844 412.121094 C 275.765625 416.019531 279.660156 420.507812 282.382812 425.589844 C 285.394531 431.207031 287.019531 437.625 287.257812 444.828125 C 278.101562 444.136719 272.414062 443.367188 271.757812 442.535156 Z M 239.179688 303 L 339.355469 303 L 339.355469 319.738281 L 239.179688 319.738281 Z M 307.867188 328.515625 L 307.867188 336.757812 C 307.867188 337.554688 307.542969 338.277344 307.035156 338.785156 L 307.019531 338.785156 C 306.5 339.308594 305.777344 339.640625 304.984375 339.640625 L 286.863281 339.640625 C 286.074219 339.640625 285.359375 339.308594 284.828125 338.785156 L 284.667969 338.632812 C 284.234375 338.132812 283.972656 337.472656 283.972656 336.75 L 283.972656 328.515625 Z M 249.648438 328.515625 L 275.195312 328.515625 L 275.195312 336.757812 C 275.195312 339.800781 276.386719 342.589844 278.332031 344.679688 L 278.625 345.003906 C 280.738281 347.117188 283.660156 348.425781 286.863281 348.425781 L 304.976562 348.425781 C 308.191406 348.425781 311.109375 347.109375 313.210938 344.988281 C 315.324219 342.867188 316.644531 339.953125 316.644531 336.757812 L 316.644531 328.515625 L 342.191406 328.515625 L 342.191406 381.808594 C 338.007812 387.109375 332.90625 390.984375 327.453125 393.398438 C 322.980469 395.375 318.300781 396.378906 313.738281 396.378906 C 309.234375 396.378906 304.800781 395.410156 300.769531 393.445312 C 294.953125 390.601562 289.96875 385.640625 286.796875 378.492188 C 286.527344 377.886719 286.117188 377.324219 285.566406 376.878906 C 283.699219 375.351562 280.945312 375.621094 279.40625 377.480469 C 267.40625 392.082031 261.058594 407.027344 260.351562 422.304688 L 249.648438 422.304688 Z M 489.070312 456.734375 C 474.894531 460.453125 438.777344 462.9375 398.09375 463.964844 C 353.546875 465.097656 303.761719 464.441406 271.273438 461.746094 L 271.851562 449.601562 C 276.148438 450.570312 281.96875 451.445312 288.964844 452.222656 C 289.664062 452.757812 290.539062 453.097656 291.492188 453.128906 C 292.214844 453.152344 292.90625 452.992188 293.515625 452.699219 C 305.761719 453.914062 320.9375 454.867188 337.433594 455.542969 C 338.070312 455.710938 338.71875 455.734375 339.339844 455.617188 C 344.75 455.835938 350.300781 456.011719 355.921875 456.164062 C 356.246094 456.210938 356.558594 456.21875 356.875 456.1875 C 362.679688 456.339844 368.558594 456.464844 374.464844 456.550781 C 380.46875 456.632812 386.496094 456.695312 392.484375 456.734375 C 392.566406 456.742188 392.660156 456.734375 392.746094 456.734375 C 405.453125 456.804688 417.96875 456.742188 429.683594 456.550781 C 429.851562 456.566406 430.019531 456.578125 430.199219 456.570312 C 430.375 456.570312 430.550781 456.550781 430.722656 456.527344 C 456.519531 456.082031 478.238281 454.972656 489.015625 453.097656 C 489.0625 454.195312 489.085938 455.410156 489.070312 456.734375 Z M 518.652344 422.3125 L 475.660156 422.3125 C 473.292969 421.199219 470.847656 420.269531 468.335938 419.4375 C 468.144531 419.363281 467.945312 419.292969 467.742188 419.238281 C 463.738281 417.949219 459.5625 416.902344 455.207031 415.820312 C 449.210938 414.328125 442.835938 412.746094 436.347656 410.339844 C 423.324219 405.503906 409.210938 399.363281 395.003906 392.675781 C 380.78125 385.980469 366.667969 378.847656 353.523438 371.960938 L 353.101562 371.722656 C 352.414062 371.390625 351.6875 371.253906 350.976562 371.285156 L 350.976562 328.515625 L 518.65625 328.515625 L 518.65625 422.3125 Z M 529.121094 319.738281 L 348.140625 319.738281 L 348.140625 303 L 529.121094 303 Z M 529.121094 319.738281 " fill-opacity="1" fill-rule="nonzero"/></g></svg>