<svg xmlns="http://www.w3.org/2000/svg" xmlns:xlink="http://www.w3.org/1999/xlink" width="1024" zoomAndPan="magnify" viewBox="0 0 768 767.999994" height="1024" preserveAspectRatio="xMidYMid meet" version="1.0"><defs><clipPath id="c181df0454"><path d="M 184 273 L 543 273 L 543 444 L 184 444 Z M 184 273 " clip-rule="nonzero"/></clipPath><clipPath id="9c2dbe26b6"><path d="M 381.910156 172.941406 L 594.539062 369.40625 L 385.859375 595.253906 L 173.226562 398.789062 Z M 381.910156 172.941406 " clip-rule="nonzero"/></clipPath><clipPath id="c6ee1a90cb"><path d="M 594.566406 369.429688 L 381.933594 172.964844 L 173.253906 398.8125 L 385.882812 595.28125 Z M 594.566406 369.429688 " clip-rule="nonzero"/></clipPath><clipPath id="7496bb8e44"><path d="M 594.566406 369.429688 L 381.933594 172.964844 L 173.253906 398.8125 L 385.882812 595.28125 Z M 594.566406 369.429688 " clip-rule="nonzero"/></clipPath><clipPath id="5ce46ba826"><path d="M 337 343 L 431 343 L 431 424.394531 L 337 424.394531 Z M 337 343 " clip-rule="nonzero"/></clipPath><clipPath id="7813483447"><path d="M 341.496094 356.507812 C 334.011719 368.839844 339.285156 380.84375 345.914062 387.214844 L 384.664062 424.394531 L 422.597656 387.347656 C 428.761719 380.492188 431.125 373.222656 429.8125 365.128906 C 428 353.929688 418.773438 345.242188 407.371094 344.003906 C 400.382812 343.25 393.628906 345.226562 388.355469 349.609375 C 386.9375 350.785156 385.667969 352.105469 384.5625 353.535156 C 383.253906 351.90625 381.714844 350.414062 379.976562 349.09375 C 373.914062 344.484375 366.199219 342.65625 358.789062 344.078125 C 351.769531 345.433594 345.46875 349.964844 341.496094 356.507812 Z M 341.496094 356.507812 " clip-rule="nonzero"/></clipPath></defs><g clip-path="url(#c181df0454)"><g clip-path="url(#9c2dbe26b6)"><g clip-path="url(#c6ee1a90cb)"><g clip-path="url(#7496bb8e44)"><path fill="#000000" d="M 187.289062 386.183594 C 187.308594 386.105469 187.332031 386.027344 187.378906 385.953125 C 188.191406 384.535156 189.351562 383.328125 190.742188 382.457031 C 192.6875 377.828125 196.542969 374.214844 200.988281 371.992188 C 206.277344 369.351562 212.253906 368.601562 218.101562 368.699219 C 224.660156 368.804688 231.144531 369.945312 237.683594 370.3125 C 243.8125 370.664062 250.003906 370.285156 256.046875 369.164062 C 260.628906 368.308594 265.136719 367.035156 269.496094 365.371094 C 270.246094 364.15625 271.351562 363.257812 272.566406 362.53125 C 273.941406 361.703125 275.398438 361 276.820312 360.25 C 276.894531 360.210938 276.972656 360.195312 277.046875 360.1875 C 277.855469 356.492188 281.449219 353.867188 285.121094 353.152344 C 285.207031 353.132812 285.289062 353.136719 285.363281 353.152344 C 290.871094 349.21875 297.410156 346.910156 304.160156 346.492188 C 304.316406 346.480469 304.441406 346.519531 304.554688 346.574219 C 304.582031 346.558594 304.605469 346.53125 304.632812 346.515625 C 304.632812 346.507812 304.628906 346.5 304.625 346.488281 C 304.539062 344.839844 305.25 343.230469 306.476562 342.140625 C 306.453125 341.894531 306.554688 341.628906 306.84375 341.507812 C 307.890625 341.066406 308.882812 341.535156 309.886719 341.851562 C 311 342.199219 312.125 342.140625 313.261719 341.984375 C 315.285156 341.707031 317.335938 341.246094 319.277344 342.066406 C 319.601562 341.621094 320.03125 341.246094 320.46875 340.90625 C 321.324219 340.246094 322.058594 339.570312 322.554688 338.589844 C 323.046875 337.613281 322.941406 336.425781 323.488281 335.5 C 323.910156 334.789062 324.742188 334.496094 325.488281 334.839844 C 325.640625 334.910156 325.722656 335.015625 325.765625 335.132812 C 325.824219 335.164062 325.886719 335.203125 325.941406 335.265625 C 326.035156 335.367188 326.117188 335.476562 326.207031 335.578125 C 329.871094 332.558594 334.78125 331.320312 339.433594 332.316406 C 339.519531 330.554688 340.015625 328.8125 341.164062 327.4375 C 341.167969 327.429688 341.171875 327.425781 341.179688 327.417969 C 341.074219 327.226562 341.070312 326.984375 341.261719 326.769531 C 342.613281 325.261719 344.03125 323.808594 345.523438 322.429688 C 346.820312 321.226562 348.1875 320.003906 349.875 319.378906 C 351.9375 318.621094 354.035156 318.875 356.011719 319.601562 C 356.039062 319.578125 356.058594 319.546875 356.089844 319.53125 C 357.261719 318.894531 358.515625 318.460938 359.8125 318.214844 C 359.816406 318.167969 359.820312 318.121094 359.839844 318.070312 C 361.476562 312.886719 366.03125 308.953125 371.371094 308.039062 C 371.296875 307.648438 371.277344 307.25 371.34375 306.84375 C 371.605469 305.234375 372.949219 303.921875 374.042969 302.8125 C 374.722656 302.125 375.46875 301.460938 376.3125 300.980469 C 376.292969 300.789062 376.359375 300.597656 376.574219 300.46875 C 378.671875 299.222656 380.765625 297.980469 382.863281 296.738281 C 384.675781 295.664062 386.558594 294.511719 388.71875 294.390625 C 390.011719 294.316406 391.277344 294.605469 392.472656 295.074219 C 397.207031 292.464844 400.582031 288.1875 404.3125 284.390625 C 408.164062 280.476562 412.632812 277.300781 417.683594 275.117188 C 420.1875 274.035156 423.128906 272.820312 425.863281 273.734375 C 428.28125 274.542969 430.035156 276.585938 431.574219 278.519531 C 432.25 279.371094 432.898438 280.269531 433.507812 281.195312 C 433.582031 281.234375 433.652344 281.273438 433.722656 281.347656 C 437.507812 285.457031 441.011719 290.050781 441.277344 295.863281 C 441.511719 301.0625 439.234375 305.984375 435.292969 309.3125 C 441.101562 313.089844 446.488281 317.625 451.925781 322 C 451.957031 322.011719 451.992188 322.015625 452.023438 322.03125 C 452.636719 322.332031 453.25 322.636719 453.867188 322.941406 C 453.96875 322.941406 454.074219 322.957031 454.1875 323.003906 C 464.488281 327.476562 476.601562 327.207031 486.625 322.078125 C 491.257812 319.707031 495.402344 316.421875 498.738281 312.425781 C 502.039062 308.472656 504.128906 303.351562 509.003906 301.007812 C 511.53125 299.792969 514.570312 299.28125 517.332031 299.910156 C 519.707031 300.449219 521.933594 302.386719 521.554688 304.957031 C 521.664062 305.027344 521.765625 305.113281 521.851562 305.242188 C 527.546875 314 530.464844 324.445312 530.09375 334.894531 C 530.09375 334.929688 530.085938 334.960938 530.082031 334.996094 C 530.085938 335.292969 529.972656 335.59375 529.667969 335.8125 C 529.449219 335.972656 529.234375 336.136719 529.027344 336.308594 C 530.804688 337.886719 531.792969 340.175781 531.835938 342.527344 C 532.0625 342.617188 532.25 342.8125 532.324219 343.136719 C 532.378906 343.371094 532.425781 343.605469 532.476562 343.835938 C 532.574219 344.015625 532.617188 344.226562 532.609375 344.433594 C 535.679688 358.015625 537.484375 371.867188 537.964844 385.789062 C 542.039062 390.363281 542.191406 396.992188 542.578125 402.792969 C 543.066406 410.0625 543.125 417.359375 542.777344 424.636719 C 542.777344 424.65625 542.769531 424.667969 542.769531 424.683594 C 542.898438 425.054688 542.808594 425.472656 542.347656 425.710938 C 520.082031 437.285156 494.445312 437.738281 469.945312 438.5625 L 385.886719 441.394531 C 359.058594 442.300781 332.1875 443.683594 305.339844 443.4375 C 279.667969 443.199219 253.773438 441.164062 228.96875 434.222656 C 217.914062 431.132812 206.300781 427.433594 197.246094 420.109375 C 189.25 413.636719 183.699219 403.515625 185.121094 392.996094 C 185.445312 390.609375 186.199219 388.324219 187.289062 386.183594 " fill-opacity="1" fill-rule="nonzero"/></g></g></g></g><g clip-path="url(#5ce46ba826)"><g clip-path="url(#7813483447)"><path fill="#ffffff" d="M 337.835938 343.605469 L 430.164062 343.605469 L 430.164062 424.394531 L 337.835938 424.394531 Z M 337.835938 343.605469 " fill-opacity="1" fill-rule="nonzero"/></g></g></svg>