<svg xmlns="http://www.w3.org/2000/svg" xmlns:xlink="http://www.w3.org/1999/xlink" width="1024" zoomAndPan="magnify" viewBox="0 0 768 767.999994" height="1024" preserveAspectRatio="xMidYMid meet" version="1.0"><defs><clipPath id="a52aa7b9cf"><path d="M 230.398438 263.550781 L 537.898438 263.550781 L 537.898438 527.007812 L 230.398438 527.007812 Z M 230.398438 263.550781 " clip-rule="nonzero"/></clipPath><clipPath id="d753c41865"><path d="M 454 240.574219 L 474 240.574219 L 474 297 L 454 297 Z M 454 240.574219 " clip-rule="nonzero"/></clipPath><clipPath id="6e7ceee384"><path d="M 283 373.097656 L 484 373.097656 L 484 477.347656 L 283 477.347656 Z M 283 373.097656 " clip-rule="nonzero"/></clipPath></defs><path d="M 320.433594 274.050781 L 446.019531 274.050781 C 447.179688 274.050781 448.121094 273.113281 448.121094 271.957031 L 448.121094 265.667969 C 448.121094 264.511719 447.179688 263.574219 446.019531 263.574219 L 320.433594 263.574219 C 319.273438 263.574219 318.332031 264.511719 318.332031 265.667969 L 318.332031 271.957031 C 318.332031 273.113281 319.273438 274.050781 320.433594 274.050781 " /><g clip-path="url(#a52aa7b9cf)"><path d="M 505.207031 516.53125 L 263.097656 516.53125 C 250.839844 516.53125 240.902344 506.613281 240.902344 494.378906 L 240.902344 346.933594 L 527.402344 346.933594 L 527.402344 494.378906 C 527.402344 506.613281 517.464844 516.53125 505.207031 516.53125 Z M 505.207031 263.570312 L 481.722656 263.570312 C 480.5625 263.570312 479.625 264.511719 479.625 265.667969 L 479.625 271.953125 C 479.625 273.113281 480.5625 274.050781 481.722656 274.050781 L 505.207031 274.050781 C 517.449219 274.050781 527.402344 283.984375 527.402344 296.222656 L 527.402344 336.457031 L 240.902344 336.457031 L 240.902344 296.222656 C 240.902344 283.984375 250.855469 274.050781 263.097656 274.050781 L 284.730469 274.050781 C 285.890625 274.050781 286.832031 273.113281 286.832031 271.953125 L 286.832031 265.667969 C 286.832031 264.511719 285.890625 263.570312 284.730469 263.570312 L 263.097656 263.570312 C 245.078125 263.570312 230.398438 278.222656 230.398438 296.222656 L 230.398438 494.378906 C 230.398438 512.324219 245.113281 527.007812 263.097656 527.007812 L 505.207031 527.007812 C 523.191406 527.007812 537.90625 512.324219 537.90625 494.378906 L 537.90625 296.222656 C 537.90625 278.222656 523.222656 263.570312 505.207031 263.570312 "/></g><path d="M 302.582031 299.554688 C 307.789062 299.554688 312.03125 295.34375 312.03125 290.125 L 312.03125 252.675781 C 312.03125 247.460938 307.789062 243.246094 302.582031 243.246094 C 297.351562 243.246094 293.132812 247.460938 293.132812 252.675781 L 293.132812 290.125 C 293.132812 295.34375 297.351562 299.554688 302.582031 299.554688 "/><g clip-path="url(#d753c41865)"><path d="M 463.871094 296.976562 C 469.082031 296.976562 473.324219 292.742188 473.324219 287.546875 L 473.324219 250.078125 C 473.324219 244.878906 469.082031 240.648438 463.871094 240.648438 C 458.644531 240.648438 454.421875 244.878906 454.421875 250.078125 L 454.421875 287.546875 C 454.421875 292.742188 458.644531 296.976562 463.871094 296.976562 " /></g><g clip-path="url(#6e7ceee384)"><path d="M 482.285156 438.171875 C 479.363281 433.066406 473.613281 432.15625 464.089844 430.652344 C 461.816406 430.292969 459.242188 429.886719 456.457031 429.378906 C 453.484375 428.839844 443.148438 426.882812 434.84375 424.335938 C 434.199219 424.136719 433.5625 423.933594 432.925781 423.722656 C 416.320312 418.246094 402.699219 408.703125 389.523438 399.46875 C 387.957031 398.375 386.335938 397.332031 384.765625 396.324219 C 382.101562 394.617188 379.34375 392.851562 376.914062 390.824219 C 375.441406 389.597656 374.140625 388.425781 372.996094 387.390625 C 369.222656 383.984375 366.46875 381.507812 362.523438 381.71875 C 361.652344 378.808594 359.589844 373.78125 355.699219 373.367188 C 353.335938 373.117188 351.722656 374.660156 347.40625 379.164062 C 340.660156 386.203125 338.300781 388.742188 337.800781 390.878906 C 336.398438 396.835938 340.105469 402.449219 342.535156 405.351562 C 336.445312 408.746094 327.914062 409.734375 322.472656 406.984375 C 319.214844 405.339844 317.515625 402.65625 315.714844 399.8125 C 313.476562 396.277344 310.941406 392.273438 305.132812 390.519531 C 303.6875 390.082031 299.296875 388.753906 296.066406 391.128906 C 293.628906 392.921875 293.261719 395.730469 292.839844 398.980469 C 292.742188 399.714844 292.644531 400.476562 292.515625 401.273438 C 292.316406 402.53125 292.082031 403.613281 291.804688 404.585938 C 291.40625 405.972656 290.957031 407.03125 290.386719 408.371094 C 289.699219 409.984375 288.84375 411.996094 287.84375 415.234375 C 285.949219 421.386719 283.085938 430.683594 284.070312 440.109375 C 284.414062 443.421875 285.21875 446.5625 286.449219 449.445312 C 287.550781 452.015625 289.019531 454.445312 290.8125 456.683594 C 289.539062 458.042969 288.539062 459.613281 287.882812 461.300781 C 286.484375 464.910156 286.234375 470.058594 288.839844 473.433594 C 291.53125 476.917969 296.300781 477.382812 299.273438 477.382812 C 299.941406 477.382812 300.519531 477.359375 300.964844 477.34375 L 301.09375 477.335938 C 321.726562 476.519531 342.761719 476.757812 363.101562 476.984375 C 368.152344 477.042969 373.203125 477.097656 378.25 477.140625 C 382.855469 477.179688 387.53125 477.203125 392.257812 477.203125 C 409.320312 477.203125 427.074219 476.867188 444.664062 475.515625 L 444.917969 475.496094 C 449.382812 475.15625 462.96875 474.128906 473.582031 464.941406 C 475.820312 463.003906 481.765625 457.855469 483.277344 449.363281 C 483.757812 446.664062 484.558594 442.148438 482.285156 438.171875 Z M 340.972656 391.625 C 341.292969 390.25 344.84375 386.546875 349.757812 381.421875 C 353.449219 377.570312 354.65625 376.542969 355.355469 376.613281 C 356.878906 376.773438 358.429688 379.542969 359.34375 382.472656 C 357.210938 383.394531 355.660156 384.925781 354.746094 385.828125 C 351.582031 388.953125 350.847656 392.144531 350.203125 394.957031 C 349.820312 396.609375 349.464844 398.171875 348.648438 399.65625 C 348.425781 400.0625 348.15625 400.480469 347.851562 400.890625 C 347.140625 401.847656 346.261719 402.726562 345.265625 403.527344 C 343.230469 401.171875 339.851562 396.390625 340.972656 391.625 Z M 290.957031 416.195312 C 291.90625 413.121094 292.691406 411.277344 293.382812 409.648438 C 293.804688 408.660156 294.183594 407.765625 294.53125 406.761719 C 297.382812 407.078125 299.859375 407.96875 301.90625 409.410156 C 306.796875 412.863281 308.027344 418.757812 309.734375 426.917969 L 309.96875 428.046875 C 310.789062 431.945312 311.671875 435.929688 312.59375 439.921875 L 312.476562 439.910156 C 304.105469 438.941406 295.609375 438.410156 287.195312 438.324219 C 286.6875 430.074219 289.140625 422.101562 290.957031 416.195312 Z M 289.445312 448.160156 C 288.570312 446.109375 287.941406 443.90625 287.558594 441.589844 C 295.726562 441.6875 303.976562 442.207031 312.105469 443.148438 L 314.515625 443.429688 C 335.792969 445.902344 348.796875 447.789062 360.40625 456.378906 C 345.75 456.171875 332.019531 455.949219 318.578125 455.695312 C 310.175781 455.535156 301.84375 455.367188 293.804688 455.1875 C 291.988281 453.03125 290.523438 450.671875 289.445312 448.160156 Z M 480.066406 448.792969 C 478.757812 456.144531 473.449219 460.746094 471.449219 462.476562 C 461.652344 470.957031 448.871094 471.925781 444.671875 472.246094 L 444.414062 472.261719 C 422.070312 473.976562 399.425781 474.054688 378.277344 473.878906 C 373.230469 473.839844 368.1875 473.78125 363.140625 473.722656 C 342.753906 473.496094 321.679688 473.257812 300.964844 474.078125 L 300.832031 474.082031 C 298.875 474.164062 293.683594 474.375 291.417969 471.4375 C 289.601562 469.085938 289.886719 465.144531 290.921875 462.480469 C 291.5 460.984375 292.441406 459.601562 293.652344 458.445312 C 301.722656 458.625 310.082031 458.796875 318.519531 458.957031 C 333.390625 459.238281 348.617188 459.480469 365.0625 459.703125 C 378.726562 459.890625 391.101562 460.03125 402.019531 460.152344 C 415.90625 460.3125 427.902344 460.445312 436.894531 460.613281 C 437.691406 460.621094 438.597656 460.628906 439.59375 460.628906 C 444.796875 460.628906 452.429688 460.371094 459.421875 458.34375 C 465.03125 456.71875 470.398438 453.902344 475.371094 449.972656 C 476.078125 449.414062 476.195312 448.390625 475.640625 447.679688 C 475.082031 446.976562 474.058594 446.855469 473.351562 447.414062 C 468.710938 451.082031 463.71875 453.707031 458.515625 455.214844 C 450.644531 457.496094 441.71875 457.402344 436.9375 457.351562 C 427.953125 457.183594 415.949219 457.050781 402.054688 456.890625 C 391.300781 456.769531 379.125 456.632812 365.703125 456.449219 C 365.195312 456.011719 364.6875 455.578125 364.179688 455.167969 C 351.664062 445.0625 337.640625 442.851562 316.03125 440.320312 C 315.015625 435.972656 314.050781 431.621094 313.160156 427.375 L 312.921875 426.25 C 311.136719 417.695312 309.722656 410.9375 303.785156 406.746094 C 301.410156 405.070312 298.59375 404.019531 295.398438 403.59375 C 295.519531 403.023438 295.632812 402.429688 295.734375 401.792969 C 295.871094 400.949219 295.972656 400.160156 296.070312 399.398438 C 296.460938 396.414062 296.742188 394.679688 297.996094 393.757812 C 299.269531 392.824219 301.351562 392.78125 304.191406 393.640625 C 308.835938 395.042969 310.746094 398.0625 312.960938 401.558594 C 314.917969 404.648438 316.945312 407.847656 321.003906 409.898438 C 323.675781 411.246094 326.863281 411.875 330.175781 411.875 C 337.890625 411.875 346.289062 408.46875 350.46875 402.835938 C 350.859375 402.304688 351.210938 401.765625 351.503906 401.226562 C 352.539062 399.34375 352.964844 397.484375 353.378906 395.6875 C 353.976562 393.074219 354.542969 390.605469 357.035156 388.148438 C 358.0625 387.132812 359.617188 385.601562 361.695312 385.113281 C 361.980469 385.046875 362.269531 385 362.554688 384.980469 C 365.117188 384.785156 367.039062 386.410156 370.8125 389.8125 C 371.980469 390.867188 373.304688 392.0625 374.828125 393.332031 C 376.113281 394.402344 377.460938 395.390625 378.828125 396.328125 L 368.570312 400.332031 C 367.730469 400.65625 367.316406 401.601562 367.640625 402.441406 C 367.894531 403.085938 368.507812 403.480469 369.160156 403.480469 C 369.355469 403.480469 369.558594 403.445312 369.75 403.371094 L 382.164062 398.53125 C 382.445312 398.710938 382.726562 398.890625 383.007812 399.070312 C 384.546875 400.0625 386.144531 401.085938 387.652344 402.140625 C 387.945312 402.347656 388.238281 402.550781 388.53125 402.757812 L 378.433594 406.695312 C 377.59375 407.023438 377.179688 407.96875 377.507812 408.804688 C 377.757812 409.449219 378.375 409.84375 379.023438 409.84375 C 379.222656 409.84375 379.421875 409.808594 379.617188 409.734375 L 391.746094 405.003906 C 393.980469 406.554688 396.230469 408.105469 398.515625 409.632812 L 388.054688 413.710938 C 387.214844 414.039062 386.800781 414.984375 387.125 415.824219 C 387.378906 416.46875 387.992188 416.863281 388.644531 416.863281 C 388.84375 416.863281 389.042969 416.828125 389.238281 416.75 L 401.792969 411.855469 C 401.8125 411.847656 401.832031 411.832031 401.851562 411.824219 C 404.382812 413.460938 406.957031 415.054688 409.597656 416.585938 L 398.976562 420.726562 C 398.140625 421.054688 397.722656 422 398.050781 422.839844 C 398.300781 423.484375 398.917969 423.878906 399.570312 423.878906 C 399.765625 423.878906 399.96875 423.84375 400.160156 423.765625 L 412.714844 418.871094 C 412.886719 418.804688 413.035156 418.707031 413.167969 418.59375 C 418.136719 421.296875 423.335938 423.742188 428.878906 425.765625 C 417.46875 433.636719 403.4375 441.140625 396.242188 436.675781 C 394.429688 435.554688 393.296875 433.839844 391.867188 431.667969 C 389.808594 428.554688 387.25 424.675781 381.492188 420.492188 C 379.25 418.859375 375.867188 417.03125 369.726562 413.707031 C 364.699219 410.984375 359.601562 408.324219 354.570312 405.792969 C 353.769531 405.386719 352.789062 405.714844 352.382812 406.519531 C 351.980469 407.324219 352.304688 408.304688 353.109375 408.707031 C 358.109375 411.222656 363.175781 413.871094 368.175781 416.574219 C 374.648438 420.078125 377.59375 421.6875 379.578125 423.128906 C 384.855469 426.96875 387.136719 430.421875 389.148438 433.46875 C 390.734375 435.871094 392.105469 437.949219 394.523438 439.449219 C 396.507812 440.679688 398.847656 441.296875 401.554688 441.296875 C 409.03125 441.296875 419.320312 436.582031 432.699219 427.074219 C 433.09375 427.199219 433.488281 427.332031 433.886719 427.453125 C 442.363281 430.054688 452.859375 432.042969 455.875 432.589844 C 458.699219 433.101562 461.292969 433.511719 463.582031 433.875 C 472.433594 435.273438 477.308594 436.042969 479.457031 439.792969 C 481.144531 442.742188 480.519531 446.238281 480.066406 448.792969 Z M 480.066406 448.792969 " /><path d="M 482.285156 438.171875 C 479.363281 433.066406 473.613281 432.15625 464.089844 430.652344 C 461.816406 430.292969 459.242188 429.886719 456.457031 429.378906 C 453.484375 428.839844 443.148438 426.882812 434.84375 424.335938 C 434.199219 424.136719 433.5625 423.933594 432.925781 423.722656 C 416.320312 418.246094 402.699219 408.703125 389.523438 399.46875 C 387.957031 398.375 386.335938 397.332031 384.765625 396.324219 C 382.101562 394.617188 379.34375 392.851562 376.914062 390.824219 C 375.441406 389.597656 374.140625 388.425781 372.996094 387.390625 C 369.222656 383.984375 366.46875 381.507812 362.523438 381.71875 C 361.652344 378.808594 359.589844 373.78125 355.699219 373.367188 C 353.335938 373.117188 351.722656 374.660156 347.40625 379.164062 C 340.660156 386.203125 338.300781 388.742188 337.800781 390.878906 C 336.398438 396.835938 340.105469 402.449219 342.535156 405.351562 C 336.445312 408.746094 327.914062 409.734375 322.472656 406.984375 C 319.214844 405.339844 317.515625 402.65625 315.714844 399.8125 C 313.476562 396.277344 310.941406 392.273438 305.132812 390.519531 C 303.6875 390.082031 299.296875 388.753906 296.066406 391.128906 C 293.628906 392.921875 293.261719 395.730469 292.839844 398.980469 C 292.742188 399.714844 292.644531 400.476562 292.515625 401.273438 C 292.316406 402.53125 292.082031 403.613281 291.804688 404.585938 C 291.40625 405.972656 290.957031 407.03125 290.386719 408.371094 C 289.699219 409.984375 288.84375 411.996094 287.84375 415.234375 C 285.949219 421.386719 283.085938 430.683594 284.070312 440.109375 C 284.414062 443.421875 285.21875 446.5625 286.449219 449.445312 C 287.550781 452.015625 289.019531 454.445312 290.8125 456.683594 C 289.539062 458.042969 288.539062 459.613281 287.882812 461.300781 C 286.484375 464.910156 286.234375 470.058594 288.839844 473.433594 C 291.53125 476.917969 296.300781 477.382812 299.273438 477.382812 C 299.941406 477.382812 300.519531 477.359375 300.964844 477.34375 L 301.09375 477.335938 C 321.726562 476.519531 342.761719 476.757812 363.101562 476.984375 C 368.152344 477.042969 373.203125 477.097656 378.25 477.140625 C 382.855469 477.179688 387.53125 477.203125 392.257812 477.203125 C 409.320312 477.203125 427.074219 476.867188 444.664062 475.515625 L 444.917969 475.496094 C 449.382812 475.15625 462.96875 474.128906 473.582031 464.941406 C 475.820312 463.003906 481.765625 457.855469 483.277344 449.363281 C 483.757812 446.664062 484.558594 442.148438 482.285156 438.171875 Z M 340.972656 391.625 C 341.292969 390.25 344.84375 386.546875 349.757812 381.421875 C 353.449219 377.570312 354.65625 376.542969 355.355469 376.613281 C 356.878906 376.773438 358.429688 379.542969 359.34375 382.472656 C 357.210938 383.394531 355.660156 384.925781 354.746094 385.828125 C 351.582031 388.953125 350.847656 392.144531 350.203125 394.957031 C 349.820312 396.609375 349.464844 398.171875 348.648438 399.65625 C 348.425781 400.0625 348.15625 400.480469 347.851562 400.890625 C 347.140625 401.847656 346.261719 402.726562 345.265625 403.527344 C 343.230469 401.171875 339.851562 396.390625 340.972656 391.625 Z M 290.957031 416.195312 C 291.90625 413.121094 292.691406 411.277344 293.382812 409.648438 C 293.804688 408.660156 294.183594 407.765625 294.53125 406.761719 C 297.382812 407.078125 299.859375 407.96875 301.90625 409.410156 C 306.796875 412.863281 308.027344 418.757812 309.734375 426.917969 L 309.96875 428.046875 C 310.789062 431.945312 311.671875 435.929688 312.59375 439.921875 L 312.476562 439.910156 C 304.105469 438.941406 295.609375 438.410156 287.195312 438.324219 C 286.6875 430.074219 289.140625 422.101562 290.957031 416.195312 Z M 289.445312 448.160156 C 288.570312 446.109375 287.941406 443.90625 287.558594 441.589844 C 295.726562 441.6875 303.976562 442.207031 312.105469 443.148438 L 314.515625 443.429688 C 335.792969 445.902344 348.796875 447.789062 360.40625 456.378906 C 345.75 456.171875 332.019531 455.949219 318.578125 455.695312 C 310.175781 455.535156 301.84375 455.367188 293.804688 455.1875 C 291.988281 453.03125 290.523438 450.671875 289.445312 448.160156 Z M 480.066406 448.792969 C 478.757812 456.144531 473.449219 460.746094 471.449219 462.476562 C 461.652344 470.957031 448.871094 471.925781 444.671875 472.246094 L 444.414062 472.261719 C 422.070312 473.976562 399.425781 474.054688 378.277344 473.878906 C 373.230469 473.839844 368.1875 473.78125 363.140625 473.722656 C 342.753906 473.496094 321.679688 473.257812 300.964844 474.078125 L 300.832031 474.082031 C 298.875 474.164062 293.683594 474.375 291.417969 471.4375 C 289.601562 469.085938 289.886719 465.144531 290.921875 462.480469 C 291.5 460.984375 292.441406 459.601562 293.652344 458.445312 C 301.722656 458.625 310.082031 458.796875 318.519531 458.957031 C 333.390625 459.238281 348.617188 459.480469 365.0625 459.703125 C 378.726562 459.890625 391.101562 460.03125 402.019531 460.152344 C 415.90625 460.3125 427.902344 460.445312 436.894531 460.613281 C 437.691406 460.621094 438.597656 460.628906 439.59375 460.628906 C 444.796875 460.628906 452.429688 460.371094 459.421875 458.34375 C 465.03125 456.71875 470.398438 453.902344 475.371094 449.972656 C 476.078125 449.414062 476.195312 448.390625 475.640625 447.679688 C 475.082031 446.976562 474.058594 446.855469 473.351562 447.414062 C 468.710938 451.082031 463.71875 453.707031 458.515625 455.214844 C 450.644531 457.496094 441.71875 457.402344 436.9375 457.351562 C 427.953125 457.183594 415.949219 457.050781 402.054688 456.890625 C 391.300781 456.769531 379.125 456.632812 365.703125 456.449219 C 365.195312 456.011719 364.6875 455.578125 364.179688 455.167969 C 351.664062 445.0625 337.640625 442.851562 316.03125 440.320312 C 315.015625 435.972656 314.050781 431.621094 313.160156 427.375 L 312.921875 426.25 C 311.136719 417.695312 309.722656 410.9375 303.785156 406.746094 C 301.410156 405.070312 298.59375 404.019531 295.398438 403.59375 C 295.519531 403.023438 295.632812 402.429688 295.734375 401.792969 C 295.871094 400.949219 295.972656 400.160156 296.070312 399.398438 C 296.460938 396.414062 296.742188 394.679688 297.996094 393.757812 C 299.269531 392.824219 301.351562 392.78125 304.191406 393.640625 C 308.835938 395.042969 310.746094 398.0625 312.960938 401.558594 C 314.917969 404.648438 316.945312 407.847656 321.003906 409.898438 C 323.675781 411.246094 326.863281 411.875 330.175781 411.875 C 337.890625 411.875 346.289062 408.46875 350.46875 402.835938 C 350.859375 402.304688 351.210938 401.765625 351.503906 401.226562 C 352.539062 399.34375 352.964844 397.484375 353.378906 395.6875 C 353.976562 393.074219 354.542969 390.605469 357.035156 388.148438 C 358.0625 387.132812 359.617188 385.601562 361.695312 385.113281 C 361.980469 385.046875 362.269531 385 362.554688 384.980469 C 365.117188 384.785156 367.039062 386.410156 370.8125 389.8125 C 371.980469 390.867188 373.304688 392.0625 374.828125 393.332031 C 376.113281 394.402344 377.460938 395.390625 378.828125 396.328125 L 368.570312 400.332031 C 367.730469 400.65625 367.316406 401.601562 367.640625 402.441406 C 367.894531 403.085938 368.507812 403.480469 369.160156 403.480469 C 369.355469 403.480469 369.558594 403.445312 369.75 403.371094 L 382.164062 398.53125 C 382.445312 398.710938 382.726562 398.890625 383.007812 399.070312 C 384.546875 400.0625 386.144531 401.085938 387.652344 402.140625 C 387.945312 402.347656 388.238281 402.550781 388.53125 402.757812 L 378.433594 406.695312 C 377.59375 407.023438 377.179688 407.96875 377.507812 408.804688 C 377.757812 409.449219 378.375 409.84375 379.023438 409.84375 C 379.222656 409.84375 379.421875 409.808594 379.617188 409.734375 L 391.746094 405.003906 C 393.980469 406.554688 396.230469 408.105469 398.515625 409.632812 L 388.054688 413.710938 C 387.214844 414.039062 386.800781 414.984375 387.125 415.824219 C 387.378906 416.46875 387.992188 416.863281 388.644531 416.863281 C 388.84375 416.863281 389.042969 416.828125 389.238281 416.75 L 401.792969 411.855469 C 401.8125 411.847656 401.832031 411.832031 401.851562 411.824219 C 404.382812 413.460938 406.957031 415.054688 409.597656 416.585938 L 398.976562 420.726562 C 398.140625 421.054688 397.722656 422 398.050781 422.839844 C 398.300781 423.484375 398.917969 423.878906 399.570312 423.878906 C 399.765625 423.878906 399.96875 423.84375 400.160156 423.765625 L 412.714844 418.871094 C 412.886719 418.804688 413.035156 418.707031 413.167969 418.59375 C 418.136719 421.296875 423.335938 423.742188 428.878906 425.765625 C 417.46875 433.636719 403.4375 441.140625 396.242188 436.675781 C 394.429688 435.554688 393.296875 433.839844 391.867188 431.667969 C 389.808594 428.554688 387.25 424.675781 381.492188 420.492188 C 379.25 418.859375 375.867188 417.03125 369.726562 413.707031 C 364.699219 410.984375 359.601562 408.324219 354.570312 405.792969 C 353.769531 405.386719 352.789062 405.714844 352.382812 406.519531 C 351.980469 407.324219 352.304688 408.304688 353.109375 408.707031 C 358.109375 411.222656 363.175781 413.871094 368.175781 416.574219 C 374.648438 420.078125 377.59375 421.6875 379.578125 423.128906 C 384.855469 426.96875 387.136719 430.421875 389.148438 433.46875 C 390.734375 435.871094 392.105469 437.949219 394.523438 439.449219 C 396.507812 440.679688 398.847656 441.296875 401.554688 441.296875 C 409.03125 441.296875 419.320312 436.582031 432.699219 427.074219 C 433.09375 427.199219 433.488281 427.332031 433.886719 427.453125 C 442.363281 430.054688 452.859375 432.042969 455.875 432.589844 C 458.699219 433.101562 461.292969 433.511719 463.582031 433.875 C 472.433594 435.273438 477.308594 436.042969 479.457031 439.792969 C 481.144531 442.742188 480.519531 446.238281 480.066406 448.792969 Z M 480.066406 448.792969 " /></g></svg>